<svg width="43" height="43" viewBox="0 0 43 43" fill="none" xmlns="http://www.w3.org/2000/svg">
<path d="M37.4444 1H5.55556C3.03959 1 1 3.03959 1 5.55556V37.4444C1 39.9604 3.03959 42 5.55556 42H37.4444C39.9604 42 42 39.9604 42 37.4444V5.55556C42 3.03959 39.9604 1 37.4444 1Z" stroke="white" stroke-width="2" stroke-linecap="round" stroke-linejoin="round"/>
<path d="M13.5278 16.9444C15.4147 16.9444 16.9444 15.4147 16.9444 13.5278C16.9444 11.6408 15.4147 10.1111 13.5278 10.1111C11.6408 10.1111 10.1111 11.6408 10.1111 13.5278C10.1111 15.4147 11.6408 16.9444 13.5278 16.9444Z" stroke="white" stroke-width="2" stroke-linecap="round" stroke-linejoin="round"/>
<path d="M42.0001 28.3333L30.6112 16.9445L5.55566 42" stroke="white" stroke-width="2" stroke-linecap="round" stroke-linejoin="round"/>
</svg>
