<svg width="18" height="18" viewBox="0 0 18 18" fill="none" xmlns="http://www.w3.org/2000/svg">
<path d="M1.7998 4.20001H3.3998H16.1998" stroke="#CCCCCC" stroke-width="2" stroke-linecap="round" stroke-linejoin="round"/>
<path d="M14.5999 4.2V15.4C14.5999 15.8243 14.4313 16.2313 14.1313 16.5314C13.8312 16.8314 13.4242 17 12.9999 17H4.9999C4.57556 17 4.16859 16.8314 3.86853 16.5314C3.56847 16.2313 3.3999 15.8243 3.3999 15.4V4.2M5.7999 4.2V2.6C5.7999 2.17565 5.96847 1.76869 6.26853 1.46863C6.56859 1.16857 6.97556 1 7.3999 1H10.5999C11.0242 1 11.4312 1.16857 11.7313 1.46863C12.0313 1.76869 12.1999 2.17565 12.1999 2.6V4.2" stroke="#CCCCCC" stroke-width="2" stroke-linecap="round" stroke-linejoin="round"/>
</svg>
